<svg width="32" height="32" viewBox="0 0 32 32" fill="none" xmlns="http://www.w3.org/2000/svg">
<path d="M16 30.3333C23.9066 30.3333 30.3333 23.9066 30.3333 16C30.3333 8.09329 23.9066 1.66663 16 1.66663C8.09331 1.66663 1.66665 8.09329 1.66665 16C1.66665 23.9066 8.09331 30.3333 16 30.3333ZM16 3.66663C22.8 3.66663 28.3333 9.19996 28.3333 16C28.3333 22.8 22.8 28.3333 16 28.3333C9.19998 28.3333 3.66665 22.8 3.66665 16C3.66665 9.19996 9.19998 3.66663 16 3.66663Z" fill="#292D32"/>
<path d="M14.32 21.7066C14.5733 21.7066 14.8266 21.6133 15.0266 21.4133L19.7333 16.7066C20.12 16.32 20.12 15.68 19.7333 15.2933L15.0266 10.5866C14.64 10.2 14 10.2 13.6133 10.5866C13.2266 10.9733 13.2266 11.6133 13.6133 12L17.6133 16L13.6133 20C13.2266 20.3866 13.2266 21.0266 13.6133 21.4133C13.8 21.6133 14.0533 21.7066 14.32 21.7066Z" fill="#292D32"/>
</svg>
