<svg width="19" height="19" viewBox="0 0 19 19" fill="none" xmlns="http://www.w3.org/2000/svg">
<path d="M14.497 18.9239C14.0302 18.9239 13.4313 18.7745 12.6826 18.3351L10.0489 16.7795C9.77588 16.6213 9.2474 16.6213 8.98315 16.7795L6.34071 18.3351C4.78167 19.2579 3.86562 18.8888 3.45164 18.59C3.04647 18.2912 2.41228 17.5265 2.82626 15.7688L3.45164 13.0707C3.5221 12.7895 3.38117 12.3061 3.16978 12.0952L0.98536 9.91557C-0.106849 8.82577 -0.0187675 7.89418 0.130971 7.43717C0.280709 6.98016 0.756349 6.1716 2.27135 5.91673L5.08115 5.45093C5.34539 5.40699 5.72414 5.12575 5.83865 4.88845L7.39769 1.78606C8.10234 0.371084 9.02719 0.160156 9.51164 0.160156C9.99609 0.160156 10.9209 0.371084 11.6256 1.78606L13.1758 4.87967C13.2991 5.11696 13.6779 5.3982 13.9421 5.44214L16.7519 5.90794C18.2757 6.16281 18.7514 6.97137 18.8923 7.42838C19.0332 7.88539 19.1213 8.81699 18.0379 9.90678L15.8535 12.0952C15.6421 12.3061 15.51 12.7807 15.5716 13.0707L16.197 15.7688C16.6022 17.5265 15.9768 18.2912 15.5716 18.59C15.3514 18.7482 14.9991 18.9239 14.497 18.9239ZM9.51164 15.3382C9.94324 15.3382 10.3748 15.4436 10.7184 15.6458L13.352 17.2014C14.1183 17.6584 14.6027 17.6584 14.7877 17.5265C14.9727 17.3947 15.1048 16.9289 14.911 16.0676L14.2857 13.3695C14.1183 12.6401 14.3913 11.6997 14.9198 11.1636L17.1043 8.98397C17.5359 8.55333 17.7296 8.13147 17.6416 7.84145C17.5447 7.55142 17.1395 7.31413 16.5405 7.21745L13.7307 6.75165C13.0525 6.6374 12.3126 6.0925 12.0043 5.4773L10.4541 2.38369C10.1723 1.82121 9.81993 1.48724 9.51164 1.48724C9.20336 1.48724 8.85103 1.82121 8.57798 2.38369L7.01894 5.4773C6.71065 6.0925 5.97077 6.6374 5.29254 6.75165L2.49155 7.21745C1.8926 7.31413 1.48742 7.55142 1.39053 7.84145C1.29365 8.13147 1.49623 8.56211 1.92783 8.98397L4.11225 11.1636C4.64074 11.6909 4.91379 12.6401 4.74644 13.3695L4.12106 16.0676C3.91847 16.9377 4.0594 17.3947 4.24437 17.5265C4.42934 17.6584 4.90498 17.6496 5.6801 17.2014L8.31373 15.6458C8.64844 15.4436 9.08004 15.3382 9.51164 15.3382Z" fill="#292D32"/>
</svg>
