<?xml version="1.0" encoding="utf-8"?>
<!-- Generator: Adobe Illustrator 28.0.0, SVG Export Plug-In . SVG Version: 6.00 Build 0)  -->
<svg version="1.1" id="Layer_1" xmlns="http://www.w3.org/2000/svg" xmlns:xlink="http://www.w3.org/1999/xlink" x="0px" y="0px"
	 viewBox="0 0 19 19" style="enable-background:new 0 0 19 19;" xml:space="preserve">
<style type="text/css">
	.st0{fill:#FFD400;stroke:#FFD400;stroke-miterlimit:10;}
	.st1{fill:#FFBC00;}
</style>
<path class="st0" d="M9.5,1L5.8,5.7L1,7.3L0.7,8.3l3.4,3.5l-0.4,6l5.5-2.1l5.5,2.3v-5.8l3-4.2c0,0-5.7-2-5.2-2C13.1,5.9,9.5,1,9.5,1
	z"/>
<path class="st1" d="M14.5,18.9c-0.5,0-1.1-0.1-1.8-0.6L10,16.8c-0.3-0.2-0.8-0.2-1.1,0l-2.6,1.6c-1.6,0.9-2.5,0.6-2.9,0.3
	c-0.4-0.3-1-1.1-0.6-2.8l0.6-2.7c0.1-0.3-0.1-0.8-0.3-1L1,9.9c-1.1-1.1-1-2-0.9-2.5C0.3,7,0.8,6.2,2.3,5.9l2.8-0.5
	c0.3,0,0.6-0.3,0.8-0.6l1.6-3.1C8.1,0.4,9,0.2,9.5,0.2c0.5,0,1.4,0.2,2.1,1.6l1.6,3.1c0.1,0.2,0.5,0.5,0.8,0.6l2.8,0.5
	c1.5,0.3,2,1.1,2.1,1.5s0.2,1.4-0.9,2.5l-2.2,2.2c-0.2,0.2-0.3,0.7-0.3,1l0.6,2.7c0.4,1.8-0.2,2.5-0.6,2.8
	C15.4,18.7,15,18.9,14.5,18.9z M9.5,15.3c0.4,0,0.9,0.1,1.2,0.3l2.6,1.6c0.8,0.5,1.3,0.5,1.4,0.3c0.2-0.1,0.3-0.6,0.1-1.5l-0.6-2.7
	c-0.2-0.7,0.1-1.7,0.6-2.2L17.1,9c0.4-0.4,0.6-0.9,0.5-1.1c-0.1-0.3-0.5-0.5-1.1-0.6l-2.8-0.5c-0.7-0.1-1.4-0.7-1.7-1.3l-1.6-3.1
	c-0.3-0.6-0.6-0.9-0.9-0.9c-0.3,0-0.7,0.3-0.9,0.9L7,5.5C6.7,6.1,6,6.6,5.3,6.8L2.5,7.2c-0.6,0.1-1,0.3-1.1,0.6
	C1.3,8.1,1.5,8.6,1.9,9l2.2,2.2c0.5,0.5,0.8,1.5,0.6,2.2l-0.6,2.7c-0.2,0.9-0.1,1.3,0.1,1.5c0.2,0.1,0.7,0.1,1.4-0.3l2.6-1.6
	C8.6,15.4,9.1,15.3,9.5,15.3z"/>
</svg>
